# xmcd CD database file
#
# Track frame offsets:
#	150
#	10479
#	34941
#	55478
#	74383
#	80579
#	101487
#	123867
#	152552
#	159426
#	181095
#	201324
#
# Disc length: 2964 seconds
#
# Revision: 1
# Processed by: cddbd v1.5.2PL0 Copyright (c) Steve Scherf et al.
# Submitted via: CDex 1.70beta2
#
DISCID=9b0b920c
DTITLE=一青窈 - Key ～ Talkie Doorkey Live CD@NHK hall [Disc 1]
DYEAR=2008
DGENRE=J-Pop
TTITLE0=Key
TTITLE1=空中ブランコ
TTITLE2=宙ぶらりん
TTITLE3=つないで手
TTITLE4=reading-1
TTITLE5=ドミノ
TTITLE6=アンモナイト
TTITLE7=指切り
TTITLE8=reading-2
TTITLE9=かざぐるま
TTITLE10=ささやき並木
TTITLE11=さよならありがと
EXTD=YEAR: 2008
EXTT0=
EXTT1=
EXTT2=
EXTT3=
EXTT4=
EXTT5=
EXTT6=
EXTT7=
EXTT8=
EXTT9=
EXTT10=
EXTT11=
PLAYORDER=
